# xmcd
#
# Track frame offsets: 
#        150
#        13576
#        39369
#        59972
#        81076
#        103721
#        120317
#        134947
#        153533
#        173537
#        193597
#        210625
#        226559
#        246408
#        266194
#        283108
#        302416
#        314801
#
# Disc length: 4444 seconds
#
# Revision: 0
# Processed by: cddbd v1.5.2PL0 Copyright (c) Steve Scherf et al.
# Submitted via: ExactAudioCopy v1.1
#
DISCID=05115a12
DTITLE=Various Artist - Say You Love Me 18 Classic OPM Love Songs
DYEAR=2014
DGENRE=Ballad
TTITLE0=Regine Velasquez - Bluer Than Blue
TTITLE1=South Border - Kahit Kailan
TTITLE2=Cacai Velasquez - Forever Blue
TTITLE3=Side A - Forevermore
TTITLE4=Gary Valenciano - Gaya Ng Dati
TTITLE5=Joey Albert - Million Miles Away
TTITLE6=Martin Nievera - Ikaw Lang Ang Mamahalin
TTITLE7=Kyla - Hanggang Ngayon
TTITLE8=Ogie Alcasid - Bakit Ngayon Ka Lang
TTITLE9=F. O. J. - Hurting Inside
TTITLE10=Allona - Someone's Always Saying Goodbye
TTITLE11=Jamie Rivera - Love Me Again
TTITLE12=Something Special - I Don't Love You Anymore
TTITLE13=Regine Velasquez and Jackie Cheung - In Love With You
TTITLE14=True Faith - Muntik Nang Maabot Ang Langit
TTITLE15=APO Hiking Society - When I Met You
TTITLE16=New Minstrels - Smile
TTITLE17=Dawn Dineros - Changing And Giving Ways
EXTD=
EXTT0=
EXTT1=
EXTT2=
EXTT3=
EXTT4=
EXTT5=
EXTT6=
EXTT7=
EXTT8=
EXTT9=
EXTT10=
EXTT11=
EXTT12=
EXTT13=
EXTT14=
EXTT15=
EXTT16=
EXTT17=
PLAYORDER=
